# xmcd
# 
# Track frame offsets:
#     150
#     18117
#     35820
#     53774
#     70746
#     88282
#     103747
#     121896
#     140732
#     157126
#     174572
#     190572
# 
# Disc length: 2767
# 
# Revision: 1
# Processed by: cddbd v1.5.2PL0 Copyright (c) Steve Scherf et al.
# Submitted via: BonkEnc v1.0.8
# 
DISCID=a50acd0c
DTITLE=Mike Piromporn - Buntuek khon so chewit Vol 3
DYEAR=2005
DGENRE=Country
TTITLE0=Duey raeng haeng ruk
TTITLE1=Pah kao bon bah sai
TTITLE2=Yak hai tur kao jai
TTITLE3=Kae kaek rub chern
TTITLE4=Roey yim term raeng
TTITLE5=Keud hod kon klai
TTITLE6=Ruen hor hong chao
TTITLE7=Rong rien lang jarn
TTITLE8=Nuk soo mor sam
TTITLE9=Ror wan sa wan pen jai
TTITLE10=Weaw tah tee took mern
TTITLE11=Yang noi kor fun dee
EXTD=
EXTT0=
EXTT1=
EXTT2=
EXTT3=
EXTT4=
EXTT5=
EXTT6=
EXTT7=
EXTT8=
EXTT9=
EXTT10=
EXTT11=
PLAYORDER=
